<?xml version="1.0" encoding="utf-8"?>
<!-- Generator: Adobe Illustrator 27.5.0, SVG Export Plug-In . SVG Version: 6.00 Build 0)  -->
<svg version="1.1" id="Layer_1" xmlns="http://www.w3.org/2000/svg" xmlns:xlink="http://www.w3.org/1999/xlink" x="0px" y="0px"
	 viewBox="0 0 100 100.4" style="enable-background:new 0 0 100 100.4;" xml:space="preserve">
<style type="text/css">
	.st0{stroke:#000000;stroke-width:0.75;stroke-miterlimit:10;}
</style>
<g>
	<path class="st0" d="M68,61.9c7.9-5.6,19-2.6,22.8,6.7c2.5-0.5,4.8,0.1,6.7,2c2.9,2.9,3,7.7,0,10.5c-4.6,4.2-9.3,8.2-14,12.2
		c-2.3,1.9-5.1,2.6-8,3.1c-7.8,1.2-15.5,2.4-23.3,3.6c-3.4,0.5-6.6,0-9.4-2.2c-2.6-2-5.2-4-7.9-6c-4.1-3-8.5-5.1-13.6-5.3
		c-0.7,0-1.5,0-2.2,0c-0.1,0.8-0.1,1.6-0.2,2.3c-0.2,1.2-0.8,2.2-1.7,3c-0.9,0.8-2,1.2-3.2,1.2c-2.9,0-5.8,0-8.6,0
		c-3.2,0-5.3-2.1-5.3-5.4c0-3.1,0-6.2,0-9.3c0-7,0-14,0-20.9c0-3.7,2-5.7,5.7-5.7c2.4,0,4.7,0,7.1,0c4,0,5.5,1.3,6.3,5.4
		c2.2-0.3,4.5-0.5,6.8-1.1c2.9-0.7,5.7-1.6,8.6-2.4c5.1-1.3,9.6-0.3,13.5,3.2c0.2,0.2,0.7,0.4,1,0.3c2.6-1,5.4-1.4,8.2-1.1
		c0.3-4.4,0.7-8.8,1-13.3l-1,0.2C44.6,45,33.3,37.1,31,24.4c-0.3-1.8-0.2-3.7-0.3-5.6c0-1.2,0.7-1.9,1.8-2.3
		c4.5-1.8,9.4-2.2,14.1-1.1s8.9,3.7,12,7.4c0.2,0.2,0.4,0.4,0.7,0.7c0.3-0.9,0.5-1.8,0.8-2.6C64.6,9.3,73,2.5,85.4,0.5
		c3.7-0.6,7.4-0.3,11.1,0.4c1.3,0.3,2,0.9,2.3,2.2c4.8,17.3-6.8,35.5-24.5,38.5c-3.8,0.7-7.6,0.7-11.4,0c-0.3,1.8-0.8,3.6-0.9,5.4
		c-0.2,3.2-0.2,6.4-0.3,9.5c0,0.3,0.1,0.7,0.3,0.8C64.3,58.4,66.3,60,68,61.9z M19,82.2c0.1,0,0.2,0.1,0.4,0.1
		c6.5-0.2,12.2,2,17.3,5.7c2.4,1.7,4.9,3.6,7.2,5.5c2.5,2.1,5.2,2.7,8.4,2.1c7-1.1,14-2.1,21-3.2c2.7-0.4,5.6-0.8,7.8-2.7
		c4.5-3.8,8.9-7.7,13.4-11.6c0.6-0.5,1-1.3,1.1-2.1c0.1-0.8-0.1-1.6-0.6-2.3c-1-1.3-2.5-1.6-4.1-0.7c-3.1,1.7-6.1,3.4-9.3,5
		c-1.9,0.9-3.8,1.6-5.8,2.1c-1.9,0.5-3.9,0.6-5.9,0.9c-2,0.3-4,0.4-5.8,1.4c-0.7,0.4-1.6,0.4-2.5,0.5c-2.2,0-4.2-0.9-6.1-2
		c-3.3-1.9-6.6-3.8-10-5.7c-1.4-0.8-2.8-1.4-4.2-2.1c-0.4-0.2-0.7-0.5-0.9-0.8c-0.2-0.4-0.3-0.8-0.3-1.2c0.1-0.9,0.6-1.6,1.4-1.8
		c0.6-0.1,1.3,0,1.8,0.3c4.1,2.2,8.1,4.4,12.2,6.6c1.5,0.8,3,1.6,4.5,2.2c1.4,0.6,2.7,0.3,3.9-0.8c0.5-0.5,0.9-1,1.1-1.6
		s0.3-1.3,0.2-2c-0.1-0.7-0.3-1.3-0.7-1.8c-0.4-0.5-0.9-1-1.5-1.3c-2.8-1.6-5.6-3-8.4-4.5c-3.3-1.7-6.5-3.7-9.2-6.2
		c-3.3-3.1-6.9-3.8-11.2-2.4c-3.2,1.1-6.6,1.9-9.9,2.6c-1.7,0.4-3.5,0.5-5.4,0.7L19,82.2z M62.6,33.7c0.4-0.5,0.6-0.7,0.8-1
		c2.5-3,5-6.2,7.6-9.1c3.8-4.2,8.2-7.8,13.1-10.6c1.2-0.7,2.4-0.4,3,0.6c0.6,1,0.2,2.2-0.9,2.9c-0.7,0.4-1.5,0.9-2.2,1.3
		c-6.3,4.2-11.4,9.7-16,15.6c-1,1.4-2,2.8-3.2,4.3c1.3,0.1,2.4,0.2,3.5,0.2c1.5,0,3-0.1,4.5-0.3c14.7-2.2,24.6-15.4,22.6-30.2
		c-0.4-3,0.1-2.3-2.8-2.8c-0.3-0.1-0.7-0.1-1-0.1c-6.4-0.5-12.8,1.3-18,5.1s-8.9,9.3-10.4,15.6C62.5,27.9,62.3,30.8,62.6,33.7z
		 M4.1,72.3L4.1,72.3c0,5,0,10,0,15c0,1.3,0.2,1.5,1.5,1.5c2.6,0,5.2,0,7.7,0c1.2,0,1.4-0.2,1.4-1.4c0-10.1,0-20.1,0-30.2
		c0-1.2-0.2-1.3-1.4-1.3c-2.6,0-5.2,0-7.7,0c-1.4,0-1.5,0.1-1.5,1.5C4.1,62.3,4.1,67.3,4.1,72.3z M58.4,33.2c-0.1-1.2,0-2.2-0.3-2.9
		C54.4,21.1,44.3,17,35.3,19.9c-0.2,0.1-0.3,0.2-0.4,0.4c-0.1,0.1-0.2,0.3-0.2,0.5c0,1.3,0.2,2.6,0.4,3.8
		c2.1,9.2,10.4,15.2,19.8,14.4c0.9-0.1,1.8-0.3,2.9-0.5c-4.1-4-8.3-7.4-13.2-9.8c-1.1-0.6-2.3-1-3.4-1.5c-0.9-0.4-1.5-1.3-1.3-2.2
		c0.2-1,0.7-1.6,1.7-1.8c0.5,0,1,0,1.5,0.2c4.7,1.7,8.8,4.4,12.7,7.6C56.6,31.7,57.4,32.4,58.4,33.2z M52.5,60.4
		c0.4,0.3,0.7,0.5,1,0.6c2.8,1.5,5.6,2.9,8.3,4.5c1.7,1,3.4,2,5,3.3c2.3,1.8,3.1,4.3,2.5,7.2c-0.1,0.3-0.1,0.6-0.1,1
		c0.8-0.1,1.4-0.2,2.1-0.3c3.5-0.4,6.8-1.1,9.9-3.1c1.8-1.2,3.8-2.1,5.7-3.1c-1.7-4.8-6.6-7.8-11.6-7.1c-2.4,0.4-4.5,1.5-6.2,3.2
		c-1.3,1.3-2.8,0.9-3.6-0.8c-0.2-0.4-0.4-0.7-0.6-1c-1.7-2.1-4.1-3.7-6.7-4.3C56.3,60,54.4,60,52.5,60.4z"/>
</g>
</svg>
