<svg width="28" height="30" viewBox="0 0 28 30" fill="none" xmlns="http://www.w3.org/2000/svg">
<path d="M21.5859 11.6588C21.7296 11.6589 21.8718 11.6304 22.0045 11.575C22.1373 11.5196 22.2578 11.4384 22.3594 11.336C22.461 11.2337 22.5416 11.1121 22.5965 10.9784C22.6515 10.8446 22.6797 10.7012 22.6797 10.5564V1.73717C22.6797 1.4448 22.5645 1.1644 22.3593 0.957654C22.1542 0.750912 21.876 0.634766 21.5859 0.634766C21.2959 0.634766 21.0177 0.750912 20.8125 0.957654C20.6074 1.1644 20.4922 1.4448 20.4922 1.73717V10.5564C20.4922 10.7012 20.5204 10.8446 20.5754 10.9784C20.6303 11.1121 20.7109 11.2337 20.8125 11.336C20.914 11.4384 21.0346 11.5196 21.1673 11.575C21.3 11.6304 21.4423 11.6589 21.5859 11.6588Z" fill="black"/>
<path d="M17.2109 9.45429C17.3546 9.45433 17.4968 9.42584 17.6295 9.37045C17.7623 9.31506 17.8828 9.23386 17.9844 9.13149C18.086 9.02911 18.1666 8.90757 18.2215 8.7738C18.2765 8.64003 18.3047 8.49666 18.3047 8.35188V3.94225C18.3047 3.64987 18.1895 3.36947 17.9843 3.16273C17.7792 2.95599 17.501 2.83984 17.2109 2.83984C16.9209 2.83984 16.6427 2.95599 16.4375 3.16273C16.2324 3.36947 16.1172 3.64987 16.1172 3.94225V8.35188C16.1172 8.49666 16.1454 8.64003 16.2004 8.7738C16.2553 8.90757 16.3359 9.02911 16.4375 9.13149C16.539 9.23386 16.6596 9.31506 16.7923 9.37045C16.925 9.42584 17.0673 9.45433 17.2109 9.45429Z" fill="black"/>
<path d="M25.9609 8.34923C26.1046 8.34927 26.2468 8.32079 26.3795 8.26543C26.5123 8.21006 26.6328 8.12889 26.7344 8.02656C26.836 7.92423 26.9166 7.80273 26.9715 7.66902C27.0265 7.53531 27.0547 7.392 27.0547 7.24727V5.04336C27.0547 4.75111 26.9395 4.47082 26.7343 4.26416C26.5292 4.05751 26.251 3.94141 25.9609 3.94141C25.6709 3.94141 25.3927 4.05751 25.1875 4.26416C24.9824 4.47082 24.8672 4.75111 24.8672 5.04336V7.24727C24.8672 7.392 24.8954 7.53531 24.9504 7.66902C25.0053 7.80273 25.0859 7.92423 25.1875 8.02656C25.289 8.12889 25.4096 8.21006 25.5423 8.26543C25.675 8.32079 25.8173 8.34927 25.9609 8.34923Z" fill="black"/>
<path d="M27.0217 23.6585L22.5814 19.2085C22.4276 19.0543 22.2314 18.9496 22.0178 18.9078C21.8043 18.866 21.5832 18.8889 21.3828 18.9737L16.7085 20.9506L8.97454 13.1998L10.9471 8.51534C11.0318 8.31445 11.0547 8.09283 11.0129 7.87882C10.9712 7.66482 10.8667 7.46815 10.7128 7.31397L6.27261 2.86404C6.17105 2.76225 6.05047 2.6815 5.91777 2.62641C5.78507 2.57132 5.64283 2.54297 5.4992 2.54297C5.35556 2.54297 5.21333 2.57132 5.08062 2.62641C4.94792 2.6815 4.82734 2.76225 4.72578 2.86404L1.6936 5.90289C-1.77785 9.382 2.18046 15.6682 8.21297 21.714C14.2455 27.7597 20.5181 31.7266 23.9895 28.2476L27.0217 25.2087C27.2268 25.0031 27.342 24.7243 27.342 24.4336C27.342 24.1428 27.2268 23.864 27.0217 23.6585Z" fill="black"/>
</svg>
