<?xml version="1.0" encoding="utf-8"?>
<!-- Generator: Adobe Illustrator 27.5.0, SVG Export Plug-In . SVG Version: 6.00 Build 0)  -->
<svg version="1.1" id="Layer_1" xmlns="http://www.w3.org/2000/svg" xmlns:xlink="http://www.w3.org/1999/xlink" x="0px" y="0px"
	 viewBox="0 0 100 100" style="enable-background:new 0 0 100 100;" xml:space="preserve">
<g>
	<path d="M81.9,42.8v-1.3c0-7.1,0-14.3,0-21.4c0-2.5,0.6-4.7,2.4-6.6c2.5-2.6,5.6-3.5,9.1-2.3c3.3,1.1,5.3,3.5,5.8,7
		c0.1,0.9,0.2,1.8,0.2,2.8c0,13.1,0,26.2,0,39.2c0,0.6-0.2,1.3-0.5,1.8c-5.4,8.8-10.9,17.6-16.3,26.4c-0.3,0.6-0.5,1.2-0.5,1.9
		c-0.1,3.2,0,6.3,0,9.6H18v-1.1c0-2.7,0-5.3,0-8c0-1.1-0.3-2-0.9-3C11.8,79.4,6.5,70.8,1.3,62.1c-0.3-0.5-0.5-1.1-0.5-1.7
		c0-13.5,0-27.1,0-40.6c0-4.5,2.6-8,6.8-8.9c4.8-1.1,9.6,2.2,10.4,7c0.1,0.7,0.1,1.4,0.1,2.1c0,7.2,0,14.3,0,21.5v1.2
		c0.6-0.1,1.1-0.2,1.6-0.3c2.9-0.4,5.5,0.5,7.6,2.6c7.1,7.1,14.2,14.2,21.3,21.2c0.5,0.5,1,1.1,1.5,1.6c0.7-0.7,1.3-1.4,1.9-2
		c6.6-6.6,13.2-13.2,19.8-19.8C75.3,42.6,76.8,42.1,81.9,42.8z M59.5,74.5c0.3-0.2,0.6-0.5,0.9-0.7c6.7-6.7,13.4-13.3,20-20
		c0.3-0.3,0.6-0.6,0.9-1c0.7-0.9,0.8-2,0.3-3c-0.5-1-1.4-1.6-2.6-1.6c-1.1,0-1.8,0.5-2.5,1.2c-6.9,6.9-13.8,13.8-20.8,20.7
		c-2,2-3,4.3-2.9,7.1c0,5.3,0,10.7,0,16v1h23.3c0-1.9,0-3.7,0-5.5c0-0.7,0.2-1.3,0.5-1.9c5.4-8.8,10.9-17.6,16.3-26.4
		c0.3-0.5,0.5-1.2,0.5-1.8c0-12.8,0-25.7,0-38.5c0-0.4,0-0.9-0.1-1.3c-0.1-0.7-0.5-1.3-1-1.7s-1.2-0.6-1.9-0.6
		c-0.7,0-1.3,0.3-1.8,0.7c-0.5,0.5-0.8,1.1-0.9,1.8c0,0.5-0.1,1-0.1,1.4c0,10,0,19.9,0,29.9c0,2.9-1,5.3-3.1,7.4
		c-6.8,6.7-13.5,13.4-20.3,20.2c-0.3,0.3-0.5,0.5-0.7,0.7L59.5,74.5z M47.1,94.2V93c0-5.2,0-10.3,0-15.5c0-3-1-5.5-3.2-7.6
		c-6.8-6.7-13.6-13.6-20.4-20.3c-0.3-0.3-0.6-0.6-0.9-0.8c-0.4-0.3-0.8-0.5-1.3-0.6c-0.5-0.1-0.9,0-1.4,0.1
		c-0.4,0.2-0.8,0.4-1.2,0.8c-0.3,0.3-0.6,0.8-0.7,1.2c-0.4,1.3,0.2,2.3,1.1,3.2c6.8,6.8,13.6,13.6,20.4,20.3
		c0.3,0.3,0.7,0.3,0.8,0.4l-4.2,4.3c-0.1-0.1-0.4-0.3-0.6-0.6c-6.8-6.8-13.6-13.5-20.3-20.3c-2.1-2.1-3.1-4.5-3.1-7.4
		c0-10,0-20.1,0-30.1c0-0.4,0-0.8,0-1.1c-0.1-0.7-0.4-1.3-0.9-1.8c-0.5-0.5-1.1-0.7-1.8-0.8c-0.7,0-1.3,0.2-1.9,0.6
		c-0.5,0.4-0.9,1-1.1,1.6c-0.1,0.5-0.1,0.9-0.1,1.4c0,12.8,0,25.7,0,38.5c0,0.7,0.2,1.4,0.6,2c5.4,8.8,10.8,17.5,16.2,26.3
		c0.3,0.6,0.5,1.2,0.5,1.8c0.1,1.8,0,3.7,0,5.6L47.1,94.2z"/>
	<path d="M25.9,24C25.9,10.9,36.6,0.1,49.9,0C63.1-0.1,74,10.7,74,24c0.1,13.2-10.7,24-24,24C36.8,48.1,26,37.3,25.9,24z M50,5.8
		C39.9,5.8,31.7,14,31.7,24c0,10.1,8.2,18.2,18.3,18.2c10.1,0,18.3-8.3,18.3-18.3C68.2,13.9,60,5.7,50,5.8L50,5.8z"/>
	<path d="M50,11.5c6.8,0,12.5,5.6,12.5,12.5c0,6.9-5.7,12.5-12.6,12.5c-3.3,0-6.4-1.4-8.7-3.7c-2.3-2.3-3.6-5.5-3.6-8.8
		c0-3.3,1.3-6.4,3.6-8.8C43.6,12.9,46.7,11.5,50,11.5L50,11.5z M56.7,24.3c0.3-3.6-2.5-6.7-6.3-7.1c-3.5-0.3-6.8,2.6-7.1,6.3
		c-0.3,3.7,2.6,6.9,6.5,7.2C53.2,31,56.4,28.1,56.7,24.3z"/>
</g>
</svg>
