<?xml version="1.0" encoding="utf-8"?>
<!-- Generator: Adobe Illustrator 27.5.0, SVG Export Plug-In . SVG Version: 6.00 Build 0)  -->
<svg version="1.1" id="Layer_1" xmlns="http://www.w3.org/2000/svg" xmlns:xlink="http://www.w3.org/1999/xlink" x="0px" y="0px"
	 viewBox="0 0 100 94.4" style="enable-background:new 0 0 100 94.4;" xml:space="preserve">
<style type="text/css">
	.st0{stroke:#000000;stroke-width:0.75;stroke-miterlimit:10;}
</style>
<g>
	<path class="st0" d="M99.7,36.6H86.5v-5.3h13.1V36.6z"/>
	<path class="st0" d="M87.4,23.1l-2.3-4.7l10.5-5.3l2.4,4.7L87.4,23.1z"/>
	<path class="st0" d="M98.1,50l-2.4,4.7c-0.2-0.1-0.4-0.2-0.6-0.3c-3.3-1.7-6.6-3.3-9.9-5l2.4-4.7L98.1,50z"/>
	<path class="st0" d="M57,2.4c0.6,0.1,1.2,0.3,1.8,0.4c5,1.5,8,4.8,9.4,9.7c0.2,0.6,0.4,0.8,1,1c8.7,2.2,12.7,12.5,7.7,20
		c-0.4,0.5-0.3,0.9,0,1.4c5,7.3,1.2,17.6-7.4,19.9c-0.7,0.2-0.9,0.4-1,1.2c-0.2,3.4-1.8,6.1-4.6,8c-0.5,0.3-0.7,0.7-0.7,1.3
		c0,5.2,0,10.2,0,15.4v1H37v-1c0-5.2,0-10.3,0-15.5c0-0.2,0-0.5-0.1-0.7s-0.3-0.4-0.5-0.5c-2.9-2-4.5-4.8-4.7-8.3c0-0.2,0-0.4,0-0.3
		c-1.6-0.8-3.3-1.4-4.7-2.3c-6.2-4-7.7-12.1-3.6-18.3c0.3-0.5,0.3-0.8,0-1.2c-5.2-7.6-1.2-17.9,7.8-20.2c0.2-0.1,0.3-0.2,0.5-0.3
		c0.1-0.1,0.2-0.3,0.3-0.5C33.7,6.9,37.3,3.5,43,2.4c0.1,0,0.2-0.1,0.3-0.1h3c1.2,0.4,2.4,0.7,3.6,1c0.2,0,0.3,0,0.5,0
		c1.2-0.3,2.4-0.7,3.6-1L57,2.4z M68.3,31.6c1,0,1.9,0.1,2.8,0c0.4,0,0.8-0.3,1.1-0.6c3.5-4.6,0.9-11.4-4.8-12.4
		c-1.3-0.2-2.7-0.2-4.2-0.3c0-1,0-1.9,0-2.9c-0.2-4.9-4.8-8.5-9.4-7.6C53,7.9,52.7,8.1,52.7,9c0,18.6,0,37.1,0,55.7v1h5.3v-3.4
		c0-1.5,0-1.5,1.4-2.1c2.6-0.9,3.8-2.6,3.9-5.4c0-1.1,0.4-2.2,1.1-3.1c0.7-0.9,1.6-1.6,2.7-1.9c0.4-0.1,0.8-0.2,1.2-0.3
		c5.2-1.6,7.3-7.9,4-12.2c-0.2-0.3-0.6-0.6-0.9-0.6c-1-0.1-2.1,0-3.1,0c-0.7,2.3-1.9,4.3-3.8,5.7c-1.8,1.4-4.1,2.2-6.4,2.2v-5.2
		c3.1-0.4,5.1-2.4,5.2-5.1c0.1-1.3-0.3-2.5-1.1-3.5c-1-1.3-2.5-1.9-4.1-2.1v-5.2C62.6,23.5,66.3,26.4,68.3,31.6z M42.3,65.7h5.3
		v-0.8c0-18.7,0-37.3,0-56.1c0-0.7-0.3-1-0.9-1.1c-4.3-1-8.7,2-9.4,6.4c-0.2,1.3-0.2,2.7-0.3,4.1c-1.4,0.1-2.8,0-4.1,0.3
		c-5.7,1-8.2,7.8-4.8,12.4c0.2,0.3,0.6,0.5,0.9,0.6c1,0.1,2.1,0,3.1,0c2.4-5.4,6.6-8.5,10.2-7.7v5.1c-3.3,0.6-5.2,2.4-5.3,5.1
		c-0.1,1.2,0.3,2.5,1.1,3.5c1,1.4,2.5,2,4.1,2.1v5.3c-5.3-0.4-8.5-3.1-10.2-7.9c-1,0-1.9-0.1-2.9,0c-0.4,0-0.8,0.2-1.1,0.5
		c-3.4,4.3-1.3,10.7,4,12.2c1.4,0.4,3,0.3,4.5,0.3c0.7,0,1.4-0.1,2.2-0.1c-0.5,1.4-0.9,2.6-1.3,3.9c-0.8,2.7,0.4,5.4,3,6.5
		c0.5,0.2,0.9,0.4,1.4,0.5c0.5,0.1,0.6,0.4,0.6,0.9C42.2,62.8,42.3,64.3,42.3,65.7z M42.3,71.1v5.2h15.7v-5.2H42.3z"/>
	<path class="st0" d="M42.1,92.1v-5.3h15.9v5.3H42.1z"/>
	<path class="st0" d="M0.3,31.4h13.1v5.3H0.3V31.4z"/>
	<path class="st0" d="M2,17.9l2.3-4.7l10.5,5.3c-0.8,1.6-1.6,3.1-2.4,4.8C9,21.3,5.6,19.6,2,17.9z"/>
	<path class="st0" d="M12.6,44.8c0.8,1.6,1.6,3.1,2.4,4.7L4.3,54.8c-0.8-1.6-1.6-3.1-2.4-4.7L12.6,44.8z"/>
</g>
</svg>
