<svg xmlns="http://www.w3.org/2000/svg" xmlns:xlink="http://www.w3.org/1999/xlink" viewBox="0 0 700.54 577.11"><defs><style>.cls-1,.cls-23,.cls-28{fill:none;}.cls-2{isolation:isolate;}.cls-3{fill:#ecf2fa;mix-blend-mode:multiply;}.cls-11,.cls-15,.cls-18,.cls-19,.cls-4,.cls-9{fill:#fff;}.cls-13,.cls-17,.cls-28,.cls-29,.cls-4,.cls-5,.cls-6,.cls-7,.cls-8,.cls-9{stroke:#1c1c1c;}.cls-13,.cls-15,.cls-17,.cls-18,.cls-19,.cls-23,.cls-24,.cls-28,.cls-29,.cls-4,.cls-5,.cls-6,.cls-7,.cls-8,.cls-9{stroke-miterlimit:10;}.cls-22,.cls-5{fill:#f8cc66;}.cls-6{fill:#eb5f65;}.cls-21,.cls-7{fill:#89e3d3;}.cls-8{fill:#68c3ee;}.cls-9{stroke-width:0.61px;}.cls-10{fill:#3a3a3a;}.cls-12{fill:#aee8ff;opacity:0.15;}.cls-13{fill:#0f0f0f;}.cls-14{fill:#007cff;}.cls-15,.cls-24{stroke:#000;}.cls-16{fill:#1a2e35;}.cls-17,.cls-24,.cls-30{fill:#141414;}.cls-18{stroke:#141414;}.cls-19,.cls-23{stroke:#0c0c0c;}.cls-20{clip-path:url(#clip-path);}.cls-25{fill:#2694d1;}.cls-26{fill:#ee3d41;}.cls-27,.cls-29{fill:#fcb814;}.cls-29{stroke-width:0.44px;}.cls-30{font-size:30.96px;font-family:HelveticaNowDisplay-Black, Helvetica Now Display;font-weight:800;}.cls-31{letter-spacing:-0.02em;}</style><clipPath id="clip-path"><rect class="cls-1" x="532.5" y="251" width="88.4" height="89.46"/></clipPath></defs><g class="cls-2"><g id="Layer_2" data-name="Layer 2"><g id="Layer_1-2" data-name="Layer 1"><path class="cls-3" d="M372.58,102.62c-29.2-10.33-61.45-14.78-91.21-6.2C259,102.87,221.61,159.13,232.28,226c4.59,28.79-15.93,58.62-43.42,75.83-13,8.16-29.76,6.86-44.49,8.87-32.66,4.47-65.24,27.83-69,60.58-3.66,31.63,21.44,68.87,40.55,92.3,49.24,60.35,136.59,93,211.45,60.22,36.3-15.92,68-49.61,93.34-79.37,26.59-31.19,38.57-72.92,40.57-113.27,2.47-50-8.83-99.35-21.26-147.46C430.49,147,409.81,115.8,372.58,102.62Z"/><path class="cls-3" d="M461.75,397.33c3.34-10.6,7.36-21.27,14.53-29.77,9.93-11.78,24.77-18.09,39.18-23.55,13.35-5.06,27-9.79,41.22-11.26,36.73-3.83,74.82,16.59,92,49.3,5.66,10.8,8.8,24.95,1.22,34.49-3.32,4.17-8.19,6.74-12.91,9.2l-47.62,24.79c-16.59,8.64-35.41,20.62-36.12,39.3-.7,18.21,10.64,34-6.37,48.77-11.45,9.91-32.69,13.38-47.26,9.91C467.37,540.83,454,497,451.67,468.3,449.73,444.28,454.55,420.15,461.75,397.33Z"/><path class="cls-3" d="M468.9,130.51C457,97.24,468.34,28.66,499.27,8.24,513.62-1.23,528-2.13,543.91,3.45c14.51,5.1,29,12.7,40.83,22.56,10.41,8.67,17.62,20.54,23.61,32.52,11.38,22.73,21,51.82,46.44,62.54,9.75,4.11,20.88,4.79,30,10.21,20.41,12.16,20.28,44.79,3.88,60.47-14.1,13.47-37.11,17.81-55.78,17.52C565.83,208.25,490.94,192.15,468.9,130.51Z"/><path class="cls-3" d="M119.57,287.18c-34.81,6-100.43-16.89-115.25-50.86-6.87-15.77-5.29-30.11,2.93-44.8,7.51-13.43,17.47-26.38,29.22-36.37,10.32-8.77,23.26-13.84,36.08-17.69,24.34-7.32,54.67-11.86,69.57-35,5.73-8.9,8.3-19.75,15.2-27.77,15.48-18,47.6-12.31,60.24,6.53,10.85,16.19,11.19,39.61,7.71,58C212.77,205,184.09,276,119.57,287.18Z"/><path class="cls-3" d="M416.7,577.1c-17.78-.6-33.46-17.18-33.05-35,.47-20.54,33.76-31.56,47.76-17.68C448.56,541.44,446,578.07,416.7,577.1Z"/><path class="cls-4" d="M598.06,112.2H161.52a13.62,13.62,0,0,0-13.63,13.61V434.17a13.62,13.62,0,0,0,13.62,13.62s167.54,0,167.55,0,10.66,33-22.38,50H463.35S426,485,435.63,447.79H598.06a13.62,13.62,0,0,0,13.63-13.61V125.83A13.63,13.63,0,0,0,598.06,112.2Z"/><path class="cls-4" d="M604.18,391.39H155.41V127.54a9.7,9.7,0,0,1,9.69-9.69H594.48a9.7,9.7,0,0,1,9.7,9.7Z"/><path class="cls-5" d="M386.08,418.5c5.94,8.48-3.36,17.78-11.85,11.84a3.16,3.16,0,0,1-.73-.73c-5.92-8.49,3.36-17.77,11.85-11.84A3,3,0,0,1,386.08,418.5Z"/><rect class="cls-5" x="275.59" y="497.49" width="213.39" height="13.11" rx="6.56"/><rect class="cls-6" x="239.73" y="99.89" width="30.01" height="30.01"/><rect class="cls-7" x="299.6" y="99.89" width="30.01" height="30.01"/><rect class="cls-8" x="329.61" y="99.89" width="30.01" height="30.01"/><rect class="cls-5" x="269.71" y="99.89" width="30.01" height="30.01"/><path class="cls-9" d="M201,84.11h4.47a56.25,56.25,0,0,1,56.25,56.25v4.47a0,0,0,0,1,0,0h-4.47A56.25,56.25,0,0,1,201,88.58V84.11A0,0,0,0,1,201,84.11Z" transform="translate(314.01 359.01) rotate(-135)"/><circle class="cls-10" cx="231.6" cy="114.47" r="12.1"/><circle class="cls-11" cx="231.6" cy="114.47" r="5.93"/><polygon class="cls-10" points="231.44 114.79 225.98 109.49 230.88 107.51 231.44 114.79"/><path class="cls-12" d="M155.41,391.39l444-272.16s2,.92,4.18,4.18V390.54Z"/><path class="cls-4" d="M469.44,197.49l4.44-2.42a5.86,5.86,0,0,0,2.65-7l-13-36.86-12.1,6.66,9.66,36.07a5.78,5.78,0,0,0,8.39,3.58Z"/><path class="cls-13" d="M428.15,154.52c-1.16-2.07-2.27-4.12-3.32-6.17a38.21,38.21,0,0,1,9.53-13.4c2.34,3.9,4.71,8,7.06,12.24s4.54,8.44,6.56,12.53a38.47,38.47,0,0,1-16.43.89C430.41,158.6,429.27,156.6,428.15,154.52Z"/><path class="cls-14" d="M436.16,150.12a81.12,81.12,0,0,1-6.83-15.64L469,112.62l16.32,29.66-39.71,21.9A82.2,82.2,0,0,1,436.16,150.12Z"/><path class="cls-4" d="M436.16,150.12a81.12,81.12,0,0,1-6.83-15.64L469,112.62l16.32,29.66-39.71,21.9A82.2,82.2,0,0,1,436.16,150.12Z"/><path class="cls-14" d="M458.24,115.36c1.79-1,40-54.73,44.78-57.51S523,71.7,535.89,95.2s19.16,44.84,14,47.73S479.13,149,477.31,150s-8.12-5.67-13.39-15.24S456,116.55,458.24,115.36Z"/><path class="cls-4" d="M458.24,115.36c1.79-1,40-54.73,44.78-57.51S523,71.7,535.89,95.2s19.16,44.84,14,47.73S479.13,149,477.31,150s-8.12-5.67-13.39-15.24S456,116.55,458.24,115.36Z"/><path class="cls-15" d="M517,105.58c12.93,23.5,27.66,40.2,32.86,37.35s-1-24.1-14-47.73S508.23,55,503,57.85,504.06,82.12,517,105.58Z"/><path class="cls-16" d="M529.43,98.66c.86,1.56,1.71,3.2,2.48,4.64a40.92,40.92,0,0,1-9.75,11.49c-1.77-2.91-3.56-6-5.34-9.18s-3.39-6.41-4.93-9.42a41.06,41.06,0,0,1,14.92-2.08A21.38,21.38,0,0,1,529.43,98.66Z"/><path class="cls-17" d="M529.43,98.66c.86,1.56,1.71,3.2,2.48,4.64a40.92,40.92,0,0,1-9.75,11.49c-1.77-2.91-3.56-6-5.34-9.18s-3.17-6.5-4.72-9.52a39.9,39.9,0,0,1,14.71-2A21.38,21.38,0,0,1,529.43,98.66Z"/><rect class="cls-18" x="414.33" y="174.51" width="78" height="78.78" rx="5.87"/><rect class="cls-18" x="423.72" y="191.59" width="60.07" height="9.39" rx="4.7"/><rect class="cls-18" x="423.72" y="209.2" width="60.07" height="9.39" rx="4.7"/><rect class="cls-18" x="423.72" y="226.81" width="60.07" height="9.39" rx="4.7"/><circle class="cls-18" cx="430.86" cy="196.13" r="7.43"/><circle class="cls-18" cx="460.79" cy="213.8" r="7.43"/><circle class="cls-18" cx="440.64" cy="231.41" r="7.43"/><rect class="cls-19" x="520.39" y="238.74" width="112.63" height="113.97"/><g class="cls-20"><rect class="cls-11" x="532.5" y="251" width="88.4" height="89.46"/><path class="cls-21" d="M527,331.55l29.07-25.84,25.84,14.76,40.84-27.91v49.37H526.54S527.23,331.32,527,331.55Z"/><circle class="cls-22" cx="581.45" cy="290.02" r="15.23"/></g><rect class="cls-23" x="532.5" y="251" width="88.4" height="89.46"/><rect class="cls-14" x="436.04" y="309.9" width="103.78" height="103.6" rx="4.94"/><rect class="cls-4" x="436.04" y="309.9" width="103.78" height="103.6" rx="4.94"/><path class="cls-24" d="M440.67,309.9h94.6a4.55,4.55,0,0,1,4.55,4.55v8.32a0,0,0,0,1,0,0H436a0,0,0,0,1,0,0v-8.24A4.63,4.63,0,0,1,440.67,309.9Z"/><path class="cls-11" d="M529.1,316.51a2.73,2.73,0,1,1-2.73-2.72A2.73,2.73,0,0,1,529.1,316.51Z"/><path class="cls-11" d="M521.35,316.41a2.73,2.73,0,1,1-2.72-2.73A2.72,2.72,0,0,1,521.35,316.41Z"/><path class="cls-11" d="M513.6,316.41a2.73,2.73,0,1,1-2.72-2.73A2.72,2.72,0,0,1,513.6,316.41Z"/><path class="cls-25" d="M497.81,385.8a23,23,0,0,1-2.84,1.06,27.15,27.15,0,0,0,2.63-2.73l-.5-3.95a23.75,23.75,0,0,1-7.23,7.06v-10.8a22.87,22.87,0,0,1,6.94,1.53l-.37-2.93a25.36,25.36,0,0,0-6.57-1.23V366.3h11.68a28.33,28.33,0,0,1-1,6.22l2.32,1.91a31.21,31.21,0,0,0,1.43-8.13h6.94a22.64,22.64,0,0,1-4,11.69l2,1.67a25.35,25.35,0,0,0-1.93-31.75l0,0-.94-.93a25.31,25.31,0,0,0-15.22-7.25h-.13c-.35,0-.7-.06-1.05-.08l-.24,0h-.44c-.57-.05-1.16-.08-1.76-.09a1.4,1.4,0,0,0-.53.11H487c-.35,0-.7,0-1,.08h-.13A25.31,25.31,0,0,0,470.56,347l-.93.93,0,0a25.4,25.4,0,0,0,0,34.16l0,0,.93.93a25.26,25.26,0,0,0,15.22,7.25l.13,0,1,.08h.09a1.34,1.34,0,0,0,.51.11h0c.6,0,1.19,0,1.76-.08l.44,0H490l1.05-.08.13,0a24.91,24.91,0,0,0,6.95-1.76Zm13.45-22.12h-6.94a30.51,30.51,0,0,0-2.59-11.19,24.55,24.55,0,0,0,3.71-2.75A22.75,22.75,0,0,1,511.26,363.68Zm-7.69-15.79a22.54,22.54,0,0,1-3,2.25,27.43,27.43,0,0,0-5.58-7A23,23,0,0,1,503.57,347.89Zm-13.7-5.15a24,24,0,0,1,8.25,8.72,22.61,22.61,0,0,1-8.25,2.08Zm0,13.43a25.44,25.44,0,0,0,9.42-2.35,27.83,27.83,0,0,1,2.26,9.86H489.87Zm-7.87-13a27.34,27.34,0,0,0-5.58,7,22.28,22.28,0,0,1-3-2.24A22.76,22.76,0,0,1,482,343.13Zm-10.45,6.61a25.08,25.08,0,0,0,3.69,2.75,30.65,30.65,0,0,0-2.58,11.19h-6.94A22.76,22.76,0,0,1,471.55,349.74Zm-5.83,16.56h6.94a30.61,30.61,0,0,0,2.58,11.19,25.81,25.81,0,0,0-3.69,2.75A22.74,22.74,0,0,1,465.72,366.3Zm7.7,15.79a22.28,22.28,0,0,1,3-2.24,27.56,27.56,0,0,0,5.58,7A22.92,22.92,0,0,1,473.42,382.09Zm13.69,5.15a24.06,24.06,0,0,1-8.26-8.71,22.92,22.92,0,0,1,8.26-2.09Zm0-13.43a25.35,25.35,0,0,0-9.43,2.36,28.09,28.09,0,0,1-2.25-9.87h11.68Zm0-10.13H475.43a28.09,28.09,0,0,1,2.25-9.87,25.35,25.35,0,0,0,9.43,2.36Zm0-10.14a22.71,22.71,0,0,1-8.26-2.08,24,24,0,0,1,8.26-8.72Z"/><polygon class="cls-25" points="510.84 383.23 497.89 372.58 500 389.21 503.82 387.11 507.38 393.56 510.59 391.79 507.03 385.34 510.84 383.23"/><path class="cls-26" d="M311.91,214.58h1.17a0,0,0,0,1,0,0v0a68.87,68.87,0,0,1-68.87,68.87H243a0,0,0,0,1,0,0v0a68.87,68.87,0,0,1,68.87-68.87Z" transform="translate(-94.64 269.55) rotate(-45)"/><path class="cls-27" d="M208.31,228.28v1.17a68.87,68.87,0,0,0,68.87,68.87h0v-1.17a68.86,68.86,0,0,0-68.87-68.87Z"/><path class="cls-27" d="M347.81,229.45h-1.17a68.86,68.86,0,0,0-68.87,68.87h1.17a68.86,68.86,0,0,0,68.87-68.87Z"/><rect class="cls-28" x="195.49" y="183.28" width="163.57" height="165.52"/><rect class="cls-29" x="188.15" y="176.77" width="13.99" height="13.99"/><rect class="cls-29" x="352.24" y="176.77" width="13.99" height="13.99"/><rect class="cls-29" x="188.15" y="340.6" width="13.99" height="13.99"/><rect class="cls-29" x="352.24" y="340.6" width="13.99" height="13.99"/><text class="cls-30" transform="translate(232.03 330.5)"><tspan class="cls-31">L</tspan><tspan x="17.03" y="0">OGO</tspan></text></g></g></g></svg>