<?xml version="1.0" encoding="utf-8"?>
<!-- Generator: Adobe Illustrator 27.5.0, SVG Export Plug-In . SVG Version: 6.00 Build 0)  -->
<svg version="1.1" id="Layer_1" xmlns="http://www.w3.org/2000/svg" xmlns:xlink="http://www.w3.org/1999/xlink" x="0px" y="0px"
	 viewBox="0 0 100 100" style="enable-background:new 0 0 100 100;" xml:space="preserve">
<g>
	<path d="M85.8,100H14.3c-0.1-0.1-0.1-0.1-0.2-0.2c-1.5-0.7-2.2-1.9-1.9-3.4c0.3-1.4,1.5-2.3,3.1-2.3c1.1,0,2.2,0,3.3,0h3.1
		c0-1.6-0.1-3.1,0-4.5c0.3-4,3.6-7.6,7.6-7.9c3.3-0.3,6.6-0.1,9.8-0.2c0.4,0,0.8,0,1.2,0v-1.3c0-5.3,0-10.7,0-16
		c0-4.3,2-7.5,5.9-9.3c0.7-0.3,0.8-0.6,0.8-1.3c0-10.9,0-21.8,0-32.7v-1.1h-1.3c-5.8,0-11.5,0-17.3,0c-1.1,0-1.8,0.3-2.3,1.4
		c-0.5,1-1.4,1.9-2.2,2.7c-0.4,0.4-0.9,0.7-1.4,1c0.2,0.4,0.3,0.7,0.5,1c4.1,7.8,8.2,15.6,12.4,23.3c0.8,1.5,1.1,3.2,0.9,4.8
		c-1.2,9.4-8.2,15.8-17.6,16.1c-8.5,0.2-15.5-4.8-17.9-12.8c-0.4-1.3-0.6-2.7-0.9-4.1v-2l14-26.5c-1.9-1-3.3-2.7-4.1-4.6
		C9.8,20,9.3,19.9,9,19.9c-1.5,0-3.1,0-4.6,0c-1.9,0-3.2-1.2-3.2-2.9c0-1.7,1.3-2.9,3.2-2.9c1.5,0,3,0,4.5,0c0.6,0,0.9-0.1,1.2-0.7
		C11.7,9.8,14.5,8,18.3,8c3.8,0,6.7,1.8,8.3,5.4c0.1,0.2,0.2,0.3,0.4,0.4c0.2,0.1,0.3,0.2,0.5,0.2c4.1,0,8.3,0,12.4,0
		c0.2,0,0.4,0,0.5-0.1c0-1.6,0-3.1,0-4.7c0.1-2.5,1.1-4.9,3-6.6C45.3,0.9,47.7,0,50.2,0c2.5,0,4.9,1.1,6.7,2.9
		c1.8,1.8,2.7,4.2,2.7,6.7c0,1.4,0,2.9,0,4.3c0.1,0,0.3,0.1,0.4,0.1c4.2,0,8.4,0,12.6,0c0.2,0,0.3-0.1,0.5-0.2
		c0.1-0.1,0.3-0.2,0.3-0.4C75,9.8,77.8,8,81.7,8c3.9,0,6.7,1.8,8.3,5.4c0.2,0.5,0.5,0.7,1,0.7c1.5,0,3.1,0,4.6,0
		c1.9,0,3.2,1.2,3.2,2.9c0,1.7-1.3,2.9-3.3,2.9c-1.3,0-2.5,0.1-3.8,0c-1-0.1-1.6,0.2-2,1.2C89,22.8,87.6,24,86,24.9
		c0.2,0.4,0.4,0.7,0.5,1c4.2,8,8.5,16,12.7,24c0.4,0.7,0.7,1.5,0.7,2.2c-0.2,4.5-1.5,8.8-4.6,12.1c-5.3,5.6-11.9,7.2-19.2,5
		C68.9,67.2,65,62,63.7,54.7c-0.4-2,0-4,1-5.8c3.2-5.8,6.2-11.6,9.3-17.5c1.1-2.1,2.3-4.3,3.4-6.5c-1.7-1-3.1-2.4-3.9-4.2
		c-0.3-0.7-0.6-0.9-1.4-0.9c-6,0-12.1,0-18.2,0h-1.1V43c0,3.6,0,7.2,0,10.8c0,0.2,0.1,0.4,0.2,0.5c0.1,0.2,0.2,0.3,0.4,0.4
		c4.2,1.9,6.2,5.1,6.2,9.7c0,5.3,0,10.5,0,15.8v1.2h1.2c2.6,0,5.3,0,7.9,0c5.8,0,9.6,3.8,9.7,9.7c0,1,0,1.9,0,3h1.1
		c1.8,0,3.7,0,5.5,0c0.7,0,1.3,0.2,1.9,0.6c0.5,0.4,0.9,1,1.1,1.7c0.3,1.4-0.4,2.7-1.7,3.4C86,99.8,85.9,99.9,85.8,100z M72.6,94.1
		c0-0.9,0-1.8,0-2.7c0-2.9-1.1-4-4-4H31.5c-0.4,0-0.7,0-1.1,0c-1.4,0.2-2.6,1.1-2.8,2.3c-0.2,1.4,0,2.9,0,4.4L72.6,94.1z M18.3,29.3
		L7.9,49.1h20.9L18.3,29.3z M81.7,29.3L71.3,49h20.9C88.7,42.5,85.3,36,81.7,29.3L81.7,29.3z M69.8,55c0.4,4.8,6.3,9.5,11.9,9.5
		c5.7,0,11.5-4.6,11.9-9.5H69.8z M30.2,55H6.3c0.9,5.4,6.5,9.6,12.3,9.4C24.2,64.3,29.6,59.9,30.2,55L30.2,55z M46.3,81.4h7.5
		c0-0.3,0-0.6,0-0.9c0-5.4,0-10.9,0-16.3c0-0.4,0-0.7-0.1-1.1c-0.1-0.6-0.3-1.2-0.7-1.7c-0.4-0.5-0.9-0.9-1.5-1.1
		c-2.7-1-5.3,0.7-5.3,3.7c0,5.6,0,11.2,0,16.8C46.2,81,46.2,81.2,46.3,81.4L46.3,81.4z M53.7,14c0-1.6,0.1-3.1,0-4.7
		c-0.1-1.9-1.6-3.3-3.5-3.4c-1.9-0.1-3.7,1.2-3.8,3.1c-0.1,1.6,0,3.2,0,4.9L53.7,14z M18.3,13.7c-0.8,0-1.6,0.4-2.2,0.9
		c-0.6,0.6-0.9,1.4-1,2.2c0,0.4,0.1,0.8,0.2,1.2c0.2,0.4,0.4,0.7,0.7,1c0.3,0.3,0.7,0.5,1,0.7c0.4,0.2,0.8,0.2,1.2,0.2
		c0.4,0,0.8-0.1,1.2-0.2c0.4-0.2,0.7-0.4,1-0.7c0.3-0.3,0.5-0.7,0.7-1c0.2-0.4,0.2-0.8,0.2-1.2c0-0.8-0.4-1.6-1-2.2
		C19.9,14.1,19.1,13.8,18.3,13.7z M81.8,13.7c-0.8,0-1.6,0.3-2.2,0.9c-0.6,0.6-1,1.4-1,2.2c0,0.4,0.1,0.8,0.2,1.2
		c0.1,0.4,0.4,0.8,0.7,1.1c0.3,0.3,0.6,0.6,1,0.7c0.4,0.2,0.8,0.3,1.2,0.3c0.4,0,0.8-0.1,1.2-0.2c0.4-0.2,0.8-0.4,1.1-0.7
		s0.5-0.6,0.7-1c0.2-0.4,0.3-0.8,0.3-1.2C85,15.3,83.5,13.8,81.8,13.7L81.8,13.7z"/>
</g>
</svg>
