<?xml version="1.0" encoding="utf-8"?>
<!-- Generator: Adobe Illustrator 27.5.0, SVG Export Plug-In . SVG Version: 6.00 Build 0)  -->
<svg version="1.1" id="Layer_1" xmlns="http://www.w3.org/2000/svg" xmlns:xlink="http://www.w3.org/1999/xlink" x="0px" y="0px"
	 viewBox="0 0 100 100" style="enable-background:new 0 0 100 100;" xml:space="preserve">
<path d="M5.3,100c-1.7-0.8-2.2-2.1-2.2-3.9c0.1-5.4,0-10.8,0-16.2c0-2.4,1.1-3.5,3.4-3.5c3.4,0,6.7,0,10.1,0h1.1v-1.1
	c0-4.3,0-8.7,0-13c0-2.3,1.1-3.4,3.5-3.5h11.2v-1.1c0-4.4,0-8.7,0-13.1c0-2.3,1.1-3.4,3.4-3.4c1.8,0,3.5,0,5.3,0V23.4
	c-0.8,0-1.6,0-2.5,0c-1.3,0-2.4-0.4-3-1.6c-0.6-1.2-0.3-2.3,0.4-3.3c3.8-5.6,7.5-11.3,11.3-16.9c1.5-2.2,3.8-2.2,5.3,0
	c3.8,5.6,7.5,11.2,11.3,16.9c0.7,1.1,1,2.2,0.3,3.4c-0.6,1.1-1.7,1.6-3,1.5c-0.8,0-1.6,0-2.5,0v17.8h3.7c0.6,0,1.2,0,1.9,0
	c2,0,3.2,1.2,3.2,3.2c0,4.4,0,8.8,0,13.2v1.2h1.1c3.4,0,6.8,0,10.2,0c2.2,0,3.4,1.1,3.4,3.4c0,4.4,0,8.7,0,13.1v1.1H87
	c2.2,0,4.4,0,6.6,0c2.1,0,3.2,1.2,3.2,3.3c0,5.5,0,10.9,0,16.4c0,1.8-0.5,3.2-2.2,3.9L5.3,100z M9.1,82.3v11.8h23.3V82.3H9.1z
	 M38.3,94.1h23.3V82.3H38.3L38.3,94.1z M91,82.3H67.7v11.8H91V82.3z M61.7,47.1H38.4v11.6h23.3V47.1z M47,76.3V64.7H23.7v11.6H47z
	 M53,76.3h23.3V64.7H53L53,76.3z M56.2,17.5L50,8.2c-2.1,3.2-4.1,6.2-6.2,9.3c2.4,0.4,3.3,1.3,3.3,3.7c0,6.3,0,12.6,0,18.9v1H53V40
	c0-6.3,0-12.6,0-18.8C52.9,18.8,53.8,17.9,56.2,17.5L56.2,17.5z"/>
</svg>
