<svg xmlns="http://www.w3.org/2000/svg" xmlns:xlink="http://www.w3.org/1999/xlink" width="1170" height="223" viewBox="0 0 1170 223">
  <defs>
    <clipPath id="clip-path">
      <rect id="Rectangle_4392" data-name="Rectangle 4392" width="1170" height="223" transform="translate(8068 7988)" fill="#fff" stroke="#707070" stroke-width="1"/>
    </clipPath>
    <clipPath id="clip-path-2">
      <rect id="Rectangle_4391" data-name="Rectangle 4391" width="1170" height="223" transform="translate(8068 7738)" fill="#fff" stroke="#707070" stroke-width="1"/>
    </clipPath>
  </defs>
  <g id="Group_12333" data-name="Group 12333" transform="translate(-8068 -7988)">
    <g id="Group_12332" data-name="Group 12332">
      <g id="Mask_Group_12" data-name="Mask Group 12" clip-path="url(#clip-path)">
        <g id="Group_12331" data-name="Group 12331">
          <path id="Path_17629" data-name="Path 17629" d="M132.788,202.391c45.953-3.686,86.563-81.594,86.563-81.594s15.418-34.607,32.526-51.31c.826-.807,1.836-1.724,2.848-2.566a36.088,36.088,0,0,1,36.916-6.291s41.88,20.614,65.183,61.277c35.53,61.992,72.471,93.427,109.8,93.429.494,0,.983-.006,1.476-.017,37.13-.824,77.838-26.265,111.493-88.095,21.535-39.559,50.04-85.1,95.839-86.707s64.054,39.618,87.358,80.281c35.532,61.992,77.942,74.416,115.266,74.418.493,0,.983-.006,1.476-.017,37.13-.824,73.019-32.587,106.675-94.415,21.534-39.562,40.213-74.6,91.575-69.8" transform="translate(7575.211 7976.956)" fill="none" stroke="#b4896e" stroke-linecap="round" stroke-linejoin="round" stroke-width="22"/>
          <path id="Path_18207" data-name="Path 18207" d="M1077.778,202.391c-45.953-3.686-86.563-81.594-86.563-81.594S975.8,86.191,958.689,69.488c-.826-.807-1.836-1.724-2.848-2.566a36.088,36.088,0,0,0-36.916-6.291s-41.88,20.614-65.183,61.277c-35.529,61.992-72.471,93.427-109.8,93.429-.494,0-.983-.006-1.476-.017-37.13-.824-77.838-26.265-111.493-88.095-21.535-39.559-40.04-85.1-85.839-86.707S471.084,80.135,447.78,120.8c-35.532,61.992-77.942,74.416-115.266,74.418-.493,0-.983-.006-1.476-.017-37.13-.824-73.019-32.587-106.675-94.415-21.534-39.562-40.213-74.6-91.575-69.8" transform="translate(8502.211 7976.956)" fill="none" stroke="#b4896e" stroke-linecap="round" stroke-linejoin="round" stroke-width="22"/>
        </g>
      </g>
      <g id="Mask_Group_13" data-name="Mask Group 13" transform="translate(0 250)" clip-path="url(#clip-path-2)">
        <g id="Group_12330" data-name="Group 12330" transform="translate(0 -250)">
          <path id="Path_17629-2" data-name="Path 17629" d="M132.788,202.391c45.953-3.686,86.563-81.594,86.563-81.594s15.418-34.607,32.526-51.31c.826-.807,1.836-1.724,2.848-2.566a36.088,36.088,0,0,1,36.916-6.291s41.88,20.614,65.183,61.277c35.53,61.992,72.471,93.427,109.8,93.429.494,0,.983-.006,1.476-.017,37.13-.824,77.838-26.265,111.493-88.095,21.535-39.559,50.04-85.1,95.839-86.707s64.054,39.618,87.358,80.281c35.532,61.992,77.942,74.416,115.266,74.418.493,0,.983-.006,1.476-.017,37.13-.824,73.019-32.587,106.675-94.415,21.534-39.562,40.213-74.6,91.575-69.8" transform="translate(7575.211 7976.956)" fill="none" stroke="#000" stroke-linecap="round" stroke-linejoin="round" stroke-width="2.5" stroke-dasharray="10"/>
          <path id="Path_18207-2" data-name="Path 18207" d="M1077.778,202.391c-45.953-3.686-86.563-81.594-86.563-81.594S975.8,86.191,958.689,69.488c-.826-.807-1.836-1.724-2.848-2.566a36.088,36.088,0,0,0-36.916-6.291s-41.88,20.614-65.183,61.277c-35.529,61.992-72.471,93.427-109.8,93.429-.494,0-.983-.006-1.476-.017-37.13-.824-77.838-26.265-111.493-88.095-21.535-39.559-40.04-85.1-85.839-86.707S471.084,80.135,447.78,120.8c-35.532,61.992-77.942,74.416-115.266,74.418-.493,0-.983-.006-1.476-.017-37.13-.824-73.019-32.587-106.675-94.415-21.534-39.562-40.213-74.6-91.575-69.8" transform="translate(8502.211 7976.956)" fill="none" stroke="#000" stroke-linecap="round" stroke-linejoin="round" stroke-width="2.5" stroke-dasharray="10"/>
        </g>
      </g>
    </g>
  </g>
</svg>
